<svg width="0" height="0" class="hidden">
  <symbol xmlns="http://www.w3.org/2000/svg" viewBox="0 0 20 19" id="phone">
    <path d="M13.1225 13.327L14.7379 11.7116C14.9554 11.4967 15.2307 11.3496 15.5303 11.2882C15.8298 11.2267 16.1408 11.2536 16.4254 11.3654L18.3941 12.1515C18.6817 12.2682 18.9283 12.4675 19.1029 12.7242C19.2774 12.9808 19.3721 13.2834 19.3749 13.5938V17.1996C19.3732 17.4107 19.3288 17.6194 19.2444 17.8129C19.16 18.0064 19.0373 18.1809 18.8837 18.3257C18.73 18.4706 18.5487 18.5829 18.3505 18.6558C18.1524 18.7287 17.9415 18.7608 17.7307 18.7501C3.93494 17.8919 1.15128 6.20918 0.624838 1.73801C0.6004 1.51845 0.622729 1.2962 0.690354 1.08588C0.757979 0.875564 0.869369 0.681949 1.0172 0.517773C1.16502 0.353597 1.34593 0.222582 1.54803 0.133345C1.75013 0.0441085 1.96883 -0.00132632 2.18975 2.94729e-05H5.67293C5.98375 0.000949514 6.2872 0.094838 6.54423 0.269619C6.80126 0.444399 7.00012 0.692079 7.11524 0.980802L7.9013 2.94956C8.01687 3.23302 8.04635 3.54425 7.98607 3.84438C7.92579 4.1445 7.77842 4.42021 7.56236 4.63706L5.94697 6.25245C5.94697 6.25245 6.87726 12.5481 13.1225 13.327Z" fill="#331A2F"></path>
  </symbol>
  <symbol xmlns="http://www.w3.org/2000/svg" viewBox="0 0 23 23" id="login">
    <path d="M1.80675 15.1776C1.22194 15.3995 0.922763 16.0567 1.20106 16.6169C2.19378 18.615 3.75079 20.2892 5.69037 21.4246C7.95702 22.7515 10.6096 23.2625 13.2069 22.8726C15.8043 22.4828 18.1899 21.2156 19.9672 19.2818C21.7445 17.348 22.8062 14.8641 22.976 12.2432C23.1457 9.62222 22.4132 7.02213 20.9002 4.87526C19.3871 2.72839 17.1849 1.16411 14.6595 0.442526C12.1341 -0.279056 9.4378 -0.114455 7.01895 0.908958C4.94913 1.78469 3.18919 3.24411 1.94705 5.09754C1.59882 5.61713 1.81074 6.30741 2.36204 6.60286C2.91335 6.89831 3.59437 6.68584 3.95504 6.17481C4.94393 4.77369 6.30844 3.66905 7.90155 2.99501C9.84398 2.17317 12.0092 2.04099 14.0372 2.62045C16.0651 3.1999 17.8337 4.45608 19.0487 6.18009C20.2637 7.90411 20.8519 9.99207 20.7156 12.0968C20.5793 14.2015 19.7267 16.1962 18.2995 17.7491C16.8723 19.302 14.9565 20.3196 12.8707 20.6326C10.7849 20.9457 8.65486 20.5353 6.83465 19.4698C5.34178 18.5959 4.13115 17.3245 3.33123 15.8076C3.03948 15.2543 2.39155 14.9558 1.80675 15.1776Z" fill="white"></path>
    <path d="M1.4375 10.6C0.940444 10.6 0.5375 11.0029 0.5375 11.5C0.5375 11.9971 0.940444 12.4 1.4375 12.4L1.4375 10.6ZM16.4489 12.1364C16.8004 11.7849 16.8004 11.2151 16.4489 10.8636L10.7213 5.13604C10.3699 4.78457 9.80001 4.78457 9.44854 5.13604C9.09707 5.48751 9.09707 6.05736 9.44854 6.40883L14.5397 11.5L9.44854 16.5912C9.09707 16.9426 9.09707 17.5125 9.44854 17.864C9.80001 18.2154 10.3699 18.2154 10.7213 17.864L16.4489 12.1364ZM1.4375 12.4L15.8125 12.4V10.6L1.4375 10.6L1.4375 12.4Z" fill="white"></path>
  </symbol>
</svg>